<?xml version="1.0" standalone="no"?><svg xmlns="http://www.w3.org/2000/svg" viewBox="0 0 1440 320"><path fill="#f6f6f6 " fill-opacity="10" d="M0,320L0,32L36.9,32L36.9,256L73.8,256L73.8,96L110.8,96L110.8,256L147.7,256L147.7,256L184.6,256L184.6,32L221.5,32L221.5,128L258.5,128L258.5,128L295.4,128L295.4,32L332.3,32L332.3,192L369.2,192L369.2,0L406.2,0L406.2,128L443.1,128L443.1,32L480,32L480,160L516.9,160L516.9,224L553.8,224L553.8,128L590.8,128L590.8,64L627.7,64L627.7,224L664.6,224L664.6,256L701.5,256L701.5,288L738.5,288L738.5,64L775.4,64L775.4,0L812.3,0L812.3,256L849.2,256L849.2,320L886.2,320L886.2,256L923.1,256L923.1,224L960,224L960,160L996.9,160L996.9,32L1033.8,32L1033.8,160L1070.8,160L1070.8,128L1107.7,128L1107.7,192L1144.6,192L1144.6,0L1181.5,0L1181.5,64L1218.5,64L1218.5,288L1255.4,288L1255.4,160L1292.3,160L1292.3,256L1329.2,256L1329.2,224L1366.2,224L1366.2,128L1403.1,128L1403.1,64L1440,64L1440,320L1403.1,320L1403.1,320L1366.2,320L1366.2,320L1329.2,320L1329.2,320L1292.3,320L1292.3,320L1255.4,320L1255.4,320L1218.5,320L1218.5,320L1181.5,320L1181.5,320L1144.6,320L1144.6,320L1107.7,320L1107.7,320L1070.8,320L1070.8,320L1033.8,320L1033.8,320L996.9,320L996.9,320L960,320L960,320L923.1,320L923.1,320L886.2,320L886.2,320L849.2,320L849.2,320L812.3,320L812.3,320L775.4,320L775.4,320L738.5,320L738.5,320L701.5,320L701.5,320L664.6,320L664.6,320L627.7,320L627.7,320L590.8,320L590.8,320L553.8,320L553.8,320L516.9,320L516.9,320L480,320L480,320L443.1,320L443.1,320L406.2,320L406.2,320L369.2,320L369.2,320L332.3,320L332.3,320L295.4,320L295.4,320L258.5,320L258.5,320L221.5,320L221.5,320L184.6,320L184.6,320L147.7,320L147.7,320L110.8,320L110.8,320L73.8,320L73.8,320L36.9,320L36.9,320L0,320L0,320Z"></path></svg>